<?xml version="1.0" standalone="no"?>
<!DOCTYPE svg PUBLIC "-//W3C//DTD SVG 20010904//EN"
 "http://www.w3.org/TR/2001/REC-SVG-20010904/DTD/svg10.dtd">
<svg version="1.0" xmlns="http://www.w3.org/2000/svg"
 width="512.000000pt" height="512.000000pt" viewBox="0 0 512.000000 512.000000"
 preserveAspectRatio="xMidYMid meet">
<metadata>
Created by potrace 1.14, written by Peter Selinger 2001-2017
</metadata>
<g transform="translate(0.000000,512.000000) scale(0.100000,-0.100000)"
fill="#000000" stroke="none">
<path d="M2865 4731 c-141 -81 -258 -242 -328 -450 -29 -84 -32 -88 -72 -94
-42 -7 -134 -43 -169 -66 -39 -26 -136 -121 -136 -133 0 -6 -9 -21 -20 -35
-28 -36 -62 -158 -62 -220 l0 -53 -427 -1 c-234 0 -435 -2 -446 -3 -210 -27
-403 -162 -494 -348 -72 -145 -71 -123 -71 -1058 l0 -835 -53 -19 c-112 -40
-191 -114 -236 -223 -18 -45 -24 -80 -26 -153 -6 -224 95 -424 295 -584 57
-46 193 -103 295 -125 17 -3 764 -6 1660 -6 1569 0 1632 1 1690 19 85 26 152
58 212 99 44 29 64 36 122 41 294 23 523 270 517 556 -2 83 -16 118 -68 170
-53 54 -96 67 -216 69 l-105 2 -58 54 c-51 46 -142 95 -179 95 -6 0 -10 306
-11 833 0 457 -2 843 -5 857 -2 14 -6 36 -8 50 -31 176 -171 358 -338 439
-141 68 -158 70 -647 71 -239 0 -437 2 -439 5 -3 2 -6 32 -8 66 -4 76 -25 139
-70 215 -35 58 -92 121 -127 141 -17 9 -17 14 -7 54 17 61 75 178 111 222 17
20 55 53 85 73 118 79 125 207 15 281 -49 33 -112 31 -176 -6z m-225 -878 c14
-8 36 -31 49 -50 66 -102 -7 -243 -126 -243 -115 0 -188 94 -157 201 29 99
144 144 234 92z m-376 -517 c167 -126 405 -129 574 -7 l42 31 503 0 c353 -1
515 -4 543 -12 87 -26 164 -91 205 -176 l24 -47 0 -421 0 -420 -25 -37 c-32
-47 -81 -71 -145 -71 -75 0 -121 12 -154 40 -39 32 -51 71 -56 181 -13 300
-224 491 -533 482 -42 -1 -95 -6 -117 -11 -63 -14 -159 -64 -213 -113 -102
-92 -150 -200 -159 -359 -3 -59 -12 -113 -21 -131 -32 -65 -92 -93 -187 -89
-65 3 -97 16 -134 54 -35 37 -40 56 -45 175 -5 102 -23 165 -72 247 -62 102
-187 192 -302 217 -59 13 -217 12 -272 -1 -120 -29 -241 -115 -303 -215 -43
-68 -69 -159 -72 -254 -1 -48 -8 -102 -14 -121 -27 -83 -134 -122 -257 -94
-41 9 -91 59 -105 105 -7 24 -9 170 -7 436 l3 400 27 53 c42 81 104 136 188
165 38 13 119 16 549 16 l504 1 31 -24z m-285 -805 c48 -34 70 -91 70 -181 1
-197 102 -362 274 -444 147 -71 366 -66 506 13 62 34 155 130 186 190 36 72
55 154 55 241 1 139 52 202 171 208 100 6 164 -22 198 -86 7 -13 14 -60 16
-104 8 -178 43 -268 144 -369 130 -130 329 -176 534 -124 l27 7 0 -221 0 -221
-1600 0 -1600 0 0 221 0 221 28 -7 c112 -29 274 -24 365 12 154 61 275 204
302 358 4 22 8 77 9 122 4 98 27 144 91 174 59 29 177 23 224 -10z m-1015
-1479 c-5 -144 50 -289 147 -391 l23 -24 -95 5 c-119 7 -200 41 -275 115 -76
73 -110 147 -120 255 -5 52 -3 60 20 83 24 24 29 25 163 25 l139 0 -2 -68z"/>
</g>
</svg>
